<svg width="30" height="30" viewBox="0 0 30 30" fill="none" xmlns="http://www.w3.org/2000/svg">
<path d="M27.5063 17.6554L29.9684 5.46791C30.1462 4.58795 29.5516 3.75 28.7495 3.75H8.29208L7.81469 1.12441C7.69573 0.469981 7.18386 0 6.59005 0H1.25C0.559636 0 0 0.62959 0 1.40625V2.34375C0 3.12041 0.559636 3.75 1.25 3.75H4.88974L8.54849 23.8731C7.67318 24.4395 7.08333 25.5013 7.08333 26.7188C7.08333 28.5309 8.38917 30 10 30C11.6108 30 12.9167 28.5309 12.9167 26.7188C12.9167 25.8004 12.5809 24.9706 12.0404 24.375H22.9595C22.4191 24.9706 22.0833 25.8004 22.0833 26.7188C22.0833 28.5309 23.3892 30 25 30C26.6108 30 27.9167 28.5309 27.9167 26.7188C27.9167 25.4196 27.2454 24.297 26.2719 23.7653L26.5593 22.3429C26.737 21.4629 26.1425 20.625 25.3404 20.625H11.3603L11.0194 18.75H26.2873C26.871 18.75 27.3769 18.2957 27.5063 17.6554Z" fill="black"/>
</svg>
