<svg width="30" height="24" viewBox="0 0 30 24" fill="none" xmlns="http://www.w3.org/2000/svg">
<path d="M15.7396 9.76042C15.7396 10.6562 15.1927 11.1719 14.2292 11.1719H12.9635V8.34896H14.2344C15.1927 8.34896 15.7396 8.85937 15.7396 9.76042V9.76042ZM18.2135 13.0208C18.2135 13.4531 18.5885 13.7344 19.1771 13.7344C19.9271 13.7344 20.4896 13.2604 20.4896 12.5937V12.1927L19.2656 12.2708C18.5729 12.3177 18.2135 12.5729 18.2135 13.0208ZM30 2.5V20.8333C30 22.2135 28.8802 23.3333 27.5 23.3333H2.5C1.11979 23.3333 0 22.2135 0 20.8333V2.5C0 1.11979 1.11979 0 2.5 0H27.5C28.8802 0 30 1.11979 30 2.5ZM6.65625 8.65625C7.09375 8.69271 7.53125 8.4375 7.80729 8.11458C8.07812 7.78125 8.25521 7.33333 8.20833 6.88021C7.82292 6.89583 7.34375 7.13542 7.06771 7.46875C6.81771 7.75521 6.60417 8.21875 6.65625 8.65625V8.65625ZM9.8125 12.5365C9.80208 12.526 8.79167 12.1406 8.78125 10.974C8.77083 10 9.57813 9.53125 9.61458 9.50521C9.15625 8.82812 8.44792 8.75521 8.20312 8.73958C7.56771 8.70312 7.02604 9.09896 6.72396 9.09896C6.41667 9.09896 5.95833 8.75521 5.45833 8.76562C4.80729 8.77604 4.19792 9.14583 3.86979 9.73437C3.1875 10.9115 3.69271 12.651 4.35417 13.6094C4.67708 14.0833 5.06771 14.6042 5.57812 14.5833C6.0625 14.5625 6.25521 14.2708 6.83854 14.2708C7.42708 14.2708 7.59375 14.5833 8.10417 14.5781C8.63542 14.5677 8.96354 14.1042 9.29167 13.6302C9.65104 13.0885 9.80208 12.5677 9.8125 12.5365ZM16.8646 9.75521C16.8646 8.36979 15.901 7.42187 14.526 7.42187H11.8594V14.526H12.9635V12.099H14.4896C15.8854 12.099 16.8646 11.1406 16.8646 9.75521V9.75521ZM21.5521 10.9896C21.5521 9.96354 20.7292 9.30208 19.4687 9.30208C18.2969 9.30208 17.4323 9.97396 17.401 10.8906H18.3958C18.4792 10.4531 18.8854 10.1667 19.4375 10.1667C20.1146 10.1667 20.4896 10.4792 20.4896 11.0625V11.4531L19.1146 11.5365C17.8333 11.6146 17.1406 12.1406 17.1406 13.0521C17.1406 13.974 17.8542 14.5833 18.8802 14.5833C19.5729 14.5833 20.2135 14.2344 20.5052 13.6771H20.526V14.5312H21.5469V10.9896H21.5521ZM26.875 9.36979H25.7552L24.4583 13.5677H24.4375L23.1406 9.36979H21.9792L23.849 14.5417L23.75 14.8542C23.5833 15.3854 23.3073 15.5937 22.8177 15.5937C22.7292 15.5937 22.5625 15.5833 22.4948 15.5781V16.4323C22.5573 16.4531 22.8333 16.4583 22.9167 16.4583C23.9948 16.4583 24.5 16.0469 24.9427 14.8021L26.875 9.36979Z" fill="black"/>
</svg>
