<svg width="30" height="24" viewBox="0 0 30 24" fill="none" xmlns="http://www.w3.org/2000/svg">
<path d="M9.70312 11.7812C9.70312 12.4167 9.19792 12.901 8.55729 12.901C8.07812 12.901 7.72396 12.6302 7.72396 12.1198C7.72396 11.4844 8.21875 10.974 8.85417 10.974C9.33854 10.974 9.70312 11.2708 9.70312 11.7812ZM4.19271 9.25521H3.94792C3.86979 9.25521 3.79167 9.30729 3.78125 9.39583L3.55729 10.7865L3.98438 10.7708C4.55729 10.7708 5 10.6927 5.10417 10.0312C5.22396 9.33333 4.78125 9.25521 4.19271 9.25521ZM18.9844 9.25521H18.75C18.6562 9.25521 18.5937 9.30729 18.5833 9.39583L18.3646 10.7865L18.7812 10.7708C19.4583 10.7708 19.9271 10.6146 19.9271 9.83333C19.9219 9.28125 19.4271 9.25521 18.9844 9.25521ZM30 2.5V20.8333C30 22.2135 28.8802 23.3333 27.5 23.3333H2.5C1.11979 23.3333 0 22.2135 0 20.8333V2.5C0 1.11979 1.11979 0 2.5 0H27.5C28.8802 0 30 1.11979 30 2.5ZM6.68229 9.55208C6.68229 8.45833 5.83854 8.09375 4.875 8.09375H2.79167C2.66146 8.09375 2.53125 8.19792 2.52083 8.33854L1.66667 13.6562C1.65104 13.7604 1.72917 13.8646 1.83333 13.8646H2.82292C2.96354 13.8646 3.09375 13.7135 3.10938 13.5677L3.34375 12.1823C3.39583 11.8073 4.03125 11.9375 4.28125 11.9375C5.77083 11.9375 6.68229 11.0521 6.68229 9.55208ZM11.0677 10.0104H10.0781C9.88021 10.0104 9.86979 10.2969 9.85938 10.4375C9.55729 9.99479 9.11979 9.91667 8.625 9.91667C7.34896 9.91667 6.375 11.0365 6.375 12.2708C6.375 13.2865 7.01042 13.9479 8.02604 13.9479C8.49479 13.9479 9.07812 13.6927 9.40625 13.3281C9.38021 13.4062 9.35417 13.5729 9.35417 13.651C9.35417 13.7708 9.40625 13.8594 9.52083 13.8594H10.4167C10.5573 13.8594 10.6771 13.7083 10.7031 13.5625L11.2344 10.2135C11.25 10.1146 11.1719 10.0104 11.0677 10.0104ZM13.1771 15.1094L16.4948 10.2865C16.5208 10.2604 16.5208 10.2344 16.5208 10.1979C16.5208 10.1094 16.4427 10.0156 16.3542 10.0156H15.3542C15.2656 10.0156 15.1719 10.0677 15.1198 10.1458L13.7396 12.1771L13.1667 10.224C13.125 10.1094 13.0104 10.0156 12.8802 10.0156H11.9062C11.8177 10.0156 11.7396 10.1094 11.7396 10.1979C11.7396 10.2604 12.7552 13.1562 12.8438 13.4323C12.7031 13.6302 11.776 14.9219 11.776 15.0781C11.776 15.1719 11.8542 15.2448 11.9427 15.2448H12.9427C13.0365 15.2396 13.125 15.1875 13.1771 15.1094ZM21.474 9.55208C21.474 8.45833 20.6302 8.09375 19.6667 8.09375H17.599C17.4583 8.09375 17.3281 8.19792 17.3125 8.33854L16.4688 13.651C16.4583 13.7552 16.5365 13.8594 16.6354 13.8594H17.7031C17.8073 13.8594 17.8854 13.7812 17.9115 13.6927L18.1458 12.1823C18.1979 11.8073 18.8333 11.9375 19.0833 11.9375C20.5625 11.9375 21.474 11.0521 21.474 9.55208ZM25.8594 10.0104H24.8698C24.6719 10.0104 24.6615 10.2969 24.6458 10.4375C24.3594 9.99479 23.9167 9.91667 23.4115 9.91667C22.1354 9.91667 21.1615 11.0365 21.1615 12.2708C21.1615 13.2865 21.7969 13.9479 22.8125 13.9479C23.2969 13.9479 23.8802 13.6927 24.1927 13.3281C24.1771 13.4062 24.1406 13.5729 24.1406 13.651C24.1406 13.7708 24.1927 13.8594 24.3073 13.8594H25.2083C25.349 13.8594 25.4688 13.7083 25.4948 13.5625L26.026 10.2135C26.0417 10.1146 25.9635 10.0104 25.8594 10.0104ZM28.3333 8.27604C28.3333 8.17187 28.2552 8.09375 28.1667 8.09375H27.2031C27.125 8.09375 27.0469 8.15625 27.0365 8.23438L26.1927 13.651L26.1771 13.6771C26.1771 13.7708 26.2552 13.8594 26.3594 13.8594H27.2187C27.349 13.8594 27.4792 13.7083 27.4896 13.5625L28.3333 8.29167V8.27604ZM23.6458 10.974C23.0104 10.974 22.5156 11.4792 22.5156 12.1198C22.5156 12.625 22.8802 12.901 23.3594 12.901C23.9844 12.901 24.4896 12.4219 24.4896 11.7812C24.4948 11.2708 24.1302 10.974 23.6458 10.974Z" fill="black"/>
</svg>
