<svg width="30" height="36" viewBox="0 0 30 36" fill="none" xmlns="http://www.w3.org/2000/svg">
<path d="M8.69866 20.8329C8.42516 22.3332 7.33898 29.327 7.01859 31.304C6.99515 31.4447 6.94045 31.4994 6.78416 31.4994H0.954708C0.360822 31.4994 -0.0689634 30.9837 0.00917943 30.4132L4.58835 1.35189C4.70556 0.601717 5.37759 0.0312745 6.15121 0.0312745C18.0524 0.0312745 19.0526 -0.257854 22.0923 0.922103C26.7887 2.74283 27.2185 7.13446 25.5306 11.8855C23.8506 16.7773 19.8653 18.8793 14.5828 18.9418C11.1914 18.9965 9.15189 18.3948 8.69866 20.8329ZM27.8984 9.58814C27.7577 9.48656 27.703 9.44749 27.6639 9.68973C27.5076 10.5806 27.2654 11.4479 26.9763 12.3153C23.8584 21.208 15.2158 20.4344 10.9961 20.4344C10.5194 20.4344 10.2068 20.6922 10.1443 21.1689C8.37828 32.1402 8.02664 34.4298 8.02664 34.4298C7.94849 34.9846 8.30014 35.4378 8.85495 35.4378H13.817C14.489 35.4378 15.0439 34.9455 15.1767 34.2735C15.2314 33.8515 15.0907 34.7501 16.302 27.139C16.6614 25.4199 17.4194 25.5996 18.5915 25.5996C24.1397 25.5996 28.4688 23.3491 29.7582 16.8242C30.2661 14.1048 30.1176 11.2448 27.8984 9.58814Z" fill="black"/>
</svg>
